<?xml version="1.0" encoding="utf-8"?>
<svg xmlns="http://www.w3.org/2000/svg" viewBox="-2942.7146 268.4399 2067.4399 2086.9333" width="2067.44px" height="2086.93px">
  <g transform="matrix(1, 0, 0, 1, 221.5026583299432, 215.17402969560067)">
    <g id="g1" transform="matrix(1, 0, 0, 1, -3164.217332, 53.265866)">
      <g id="group-R5">
        <path id="path2" d="m 7746.42,5209.5 c -2038.47,0 -3690.97,1652.49 -3690.97,3690.96 0,2038.44 1652.5,3690.94 3690.97,3690.94 2038.47,0 3690.98,-1652.5 3690.98,-3690.94 0,-2038.47 -1652.51,-3690.96 -3690.98,-3690.96 z m 0,8328.8 c -2561.4,0 -4637.81,-2076.4 -4637.81,-4637.84 0,-2561.36 2076.41,-4637.86 4637.81,-4637.86 2561.38,0 4637.78,2076.5 4637.78,4637.86 0,2561.44 -2076.4,4637.84 -4637.78,4637.84" style="fill:#ddf3e9;fill-opacity:1;fill-rule:nonzero;stroke:none" transform="matrix(0.13333333,0,0,-0.13333333,0,2231.5067)"/>
        <path id="path3" d="m 7852.26,3650 c -5220.22,-65.7 -7348.264,6663.1 -3032.68,9637.4 1211.72,835.2 3074.11,1136.4 4481,661 C 15088.9,11992.7 13668.8,3723.2 7852.26,3650 Z m 6261.04,4854.5 -10.8,1175.96 1326.4,909.04 -687.7,1912.1 -1571.2,-153.9 -699.5,874.4 508.1,1519.7 -1666.1,1143.6 -1220.6,-1050.8 -1102.37,412.4 -399.69,1489.3 -1993.34,-40.7 -483.12,-1620.9 -1031.02,-358.3 -1262.99,978.6 -1594.21,-1200.7 606.94,-1522.1 -688.45,-975.8 -1544.377,140 L 0,10093.8 1365.92,9311.17 1397.46,8133.79 89.4414,7215.52 783.66,5342.7 2321.14,5462.3 c 171.3,-222.6 722.59,-1084.4 722.59,-1084.4 0,0 -576.22,-1246.5 -547.85,-1330.7 l 1681.76,-1137 1221.83,1049.9 1132.08,-360.3 451.58,-1515.5 2028.67,69.8 363.38,1566.7 1039.42,366.4 1325.9,-968.2 1560.2,1217.4 c 0,0 -691.2,1327.9 -601.5,1526.2 l 670,942.9 1563.3,-52.7 573.3,1834.12 c 0,0 -1163.1,754.68 -1392.5,917.58" style="fill:#ddf3e9;fill-opacity:1;fill-rule:nonzero;stroke:none" transform="matrix(0.13333333,0,0,-0.13333333,0,2231.5067)"/>
        <path id="path4" d="M 7492.64,4797.8 C 7024.63,3695.8 5948.06,3005.9 4767.48,3029.3 c 9.83,6 18.77,12.5 28.63,19 12.66,8.2 24.88,16.8 37.54,25 24.89,16.8 49.34,34.1 73.35,51.9 10.82,7.8 22.12,16 32.48,23.8 33.92,25.6 66.92,51.2 99.07,78.3 0.93,0.4 1.43,1.3 2.36,1.7 31.67,26.6 62.47,54.2 92.83,82.2 9.96,9.2 19.47,18.4 28.97,27.6 20.91,20.2 41.82,40.4 61.84,61.1 10.47,10.5 20.49,21.1 30.5,31.7 20.04,21.1 39.17,42.7 58.33,64.8 8.62,9.7 17.23,19.4 25.84,29.1 26.85,31.8 52.82,64.1 77.89,97 21.22,27.9 42.01,56.8 62.38,86.1 302.59,437.9 474.86,999 486.63,1591.1 0.48,11.9 0.95,23.7 0.95,35.1 0.23,28.8 0,57.1 -0.87,81.4 l 0.22,5.5 c -7.32,468.6 -112.48,924.2 -304.16,1318.36 -29.99,61.51 -61.87,121.27 -95.66,178.82 -29.09,49.59 -60.05,97.88 -92.43,145.32 -30.65,44.63 -62.73,87.94 -96.22,130.4 -51.31,65.1 -105.92,127.59 -164.28,187.95 -3.07,3.32 -6.15,6.18 -9.21,9.51 -79.45,81.3 -165,158.73 -268.55,242.82 -1.75,1.9 -3.52,3.34 -4.42,3.83 -26.02,23.43 -53,45.52 -80.56,64.9 l -1.77,1.44 c -49.17,38.52 -98.4,75.66 -147.18,112.79 -199.97,152.37 -388.86,296.07 -552.44,490.38 -10.91,12.77 -21.8,26 -32.68,39.68 l -5.23,6.15 c -56.41,63.48 -123.72,116.88 -201.54,158.83 -10.31,4.98 -20.61,10.41 -30.91,15.4 -3.18,12 -6.36,24.01 -9.51,36.47 -3.16,12.46 -6.32,24.92 -9.48,37.39 -3.85,17.97 -7.68,36.4 -11.51,54.83 -2.26,11.96 -5,23.5 -6.81,35.45 -3.76,20.25 -6.61,40.47 -9.91,60.7 -1.42,10.11 -2.85,20.22 -4.27,30.33 -3.82,30.3 -7.18,60.59 -9.62,90.84 l 25.12,22.76 -29.27,33.61 c -0.29,4.12 -0.57,8.7 -0.82,13.74 -3.12,70.48 -2.4,145.84 2.29,217.39 1.42,24.15 3.72,47.36 6,70.12 33.4,321.68 153.52,595.13 189.96,672.26 l 9.43,18.81 c 48.9,103.12 76.15,213.52 80.69,327.12 0.96,24.2 0.54,47.9 -0.34,71.7 -0.23,5.5 -0.47,11 -1.18,16.1 -1.36,23.3 -3.62,46.7 -7.27,69.7 -0.33,3.2 -1.11,6.5 -1.44,9.7 -1.81,11.9 -4.07,23.9 -6.34,35.9 194.19,-57.1 351.55,-212.4 406.68,-410.6 16.8,-60.05 23.9,-122.47 21.42,-184.51 -1.11,-27.83 -4.01,-54.67 -8.08,-76.44 l -2.35,-13.15 c -0.55,-2.27 -1.61,-5.88 -2.25,-10.42 -7.73,-44.92 -72.69,-447.13 22.66,-851.18 3.12,-13.37 6.68,-27.22 9.82,-40.14 l -0.24,-17.35 7.86,-8.99 c 191.89,-675.18 819.48,-1125.61 1000.27,-1243.4 10.22,-7.26 18.68,-12.63 25.82,-17.03 l 36.58,57.94 36.58,57.93 c -79.78,50.25 -784.2,510.15 -971.54,1196.11 l -4.42,15.25 0.02,0.46 c -2.79,10.16 -5.11,20.76 -7.9,30.93 -88.64,377.27 -27.91,754.06 -21.29,794 l 4.98,21.74 c 5.35,30.85 8.96,64.06 10.33,98.27 0.83,20.99 0.76,42 -0.24,62.61 -0.64,6.88 -1.28,13.75 -1.92,20.63 -0.8,14.2 -2.08,27.96 -3.82,41.73 -0.33,3.21 -0.65,6.42 -1,9.18 191.2,-28.65 355.81,-162.7 418.88,-345.24 l 3.25,-10.18 c 3.6,-12.93 6.83,-23.57 10.5,-34.68 l 2,-6.94 c 155.71,-494.17 558.71,-767.96 799.36,-931.54 23.57,-16.02 45.37,-30.6 65.37,-44.64 C 7073.04,7824.56 7996.54,5986.2 7492.64,4797.8" style="fill:#72bc2d;fill-opacity:1;fill-rule:nonzero;stroke:none" transform="matrix(0.13333333,0,0,-0.13333333,0,2231.5067)"/>
        <path id="path5" d="m 3964.62,10255.6 c -3.63,-90.8 -24.51,-179.1 -62.1,-262.1 l -8.46,-17.48 c -1.99,-4.04 -4.47,-8.96 -6.95,-13.89 -38.43,-81.16 -166.57,-372.56 -202.23,-716.09 -9.88,-98.75 -13.23,-205.53 -8.72,-309.88 0.37,-2.3 0.27,-4.58 0.64,-6.88 l -26.11,-24.54 30.22,-32.73 c 1.97,-30.69 5.31,-61.44 9.11,-92.2 1.04,-8.27 2.52,-17.01 3.56,-25.27 3.54,-25.73 7.1,-51 11.55,-76.76 1.15,-5.53 2.29,-11.52 2.98,-17.03 4.89,-26.23 10.24,-52.49 16.04,-78.77 -4.07,1.08 -8.16,1.7 -12.24,2.32 -6.33,1.62 -13.14,2.81 -19.49,3.98 -14.52,2.41 -28.59,4.79 -43.15,6.29 -6.37,0.71 -12.72,1.88 -18.65,2.11 -20.02,2.18 -39.62,3.42 -59.25,3.74 -3.19,0.13 -6.86,-0.18 -10.53,-0.49 -16.43,0.2 -32.46,-0.53 -48.93,-1.24 -6.88,-0.64 -14.22,-1.26 -21.55,-1.89 -12.85,-1.31 -25.71,-3.08 -39.05,-5.29 -6.88,-0.64 -13.77,-1.73 -20.69,-3.28 -17.02,-2.98 -33.61,-6.43 -49.77,-10.81 -4.62,-1.18 -9.24,-2.37 -13.85,-3.56 -16.63,-4.36 -32.83,-9.65 -48.58,-14.96 -6.49,-2.48 -13.44,-4.95 -19.94,-7.43 -12.08,-5 -24.15,-10 -36.25,-15.46 -6.52,-2.93 -13.01,-5.41 -19.54,-8.81 -14.44,-6.74 -28.45,-14.4 -42.94,-22.5 -2.81,-1.72 -6.07,-3.41 -9.34,-5.11 -16.38,-9.85 -32.78,-20.16 -48.77,-31.4 -5.18,-3.91 -10.36,-7.81 -15.07,-11.28 -11.31,-8.69 -22.62,-17.37 -33.48,-26.08 -5.2,-4.36 -10.4,-8.72 -15.14,-13.1 -12.32,-10.93 -24.65,-22.32 -36.07,-33.74 -2.85,-2.63 -5.7,-5.25 -8.09,-7.9 -12.39,-12.76 -24.34,-25.99 -35.85,-39.69 5.18,26.75 10.82,53.48 16.44,79.76 1.65,7.24 3.75,14.01 5.41,21.25 4.98,21.74 10.4,42.99 16.27,64.23 2.18,8.6 4.33,16.74 6.48,24.87 6.88,23.49 13.3,46.99 20.62,70 1.05,3.61 2.59,7.66 3.66,11.73 8.4,27.08 17.23,53.68 26.49,79.81 2.1,6.77 4.66,13.52 7.21,20.27 7.19,19.82 14.37,39.63 21.54,59 3.05,7.64 5.62,14.85 8.65,22.04 8.69,22.95 17.33,44.99 26.44,67.02 1.02,2.7 2.02,4.94 3.03,7.19 10.12,24.72 20.67,48.52 30.75,72.33 3,6.27 5.52,12.11 8.05,18.41 8.03,17.95 16.04,35.45 24.05,52.95 2.97,5.82 5.51,12.12 8.5,18.39 9.98,21.08 19.96,42.15 29.46,62.79 0.48,0.44 0.5,0.9 0.97,1.33 10.47,21.97 20.91,43.03 30.85,63.19 2.5,5.38 4.98,10.31 7.94,15.68 7.46,15.23 15.4,30.91 22.84,45.69 2.48,4.92 4.98,10.3 7.46,15.23 8.92,17.46 17.85,34.93 26.26,51.04 l 9.43,18.81 c 8.43,16.57 18.31,35.36 29.17,55.49 18.75,34.89 35.36,73.06 49.28,112.71 5.11,13.5 9.32,27.5 13.55,41.95 19.56,66.38 30.96,134.46 33.69,202.88 6.69,167.42 -36.6,330.46 -124.63,471.46 -145.49,235.2 -397.3,382.3 -673.73,393.3 -55.65,2.3 -111.98,-1 -167.63,-10.2 -5.05,-0.7 -10.13,-1.8 -15.64,-2.5 94.7,83 193.33,161.7 294.07,235.9 51.28,37.2 94.07,67.5 134.92,95.1 108.82,59.1 232.4,87.6 357.84,82.5 232.65,-9.2 444.24,-133.7 566.05,-332.8 24.05,-38.4 44.27,-81.3 60.71,-127.2 30.48,-83.4 43.84,-172.1 40.23,-262.4" style="fill:#72bc2d;fill-opacity:1;fill-rule:nonzero;stroke:none" transform="matrix(0.13333333,0,0,-0.13333333,0,2231.5067)"/>
        <path id="path6" d="m 5829.27,5305.2 -0.05,-1.4 c -3.66,-194.5 -25.45,-385.5 -64.76,-569 -80.78,-386.5 -237,-740.3 -456.43,-1029.4 -25.57,-33.7 -52.48,-66.9 -79.81,-99.2 -9.58,-11 -19.58,-21.1 -29.15,-32.1 -18.67,-21.2 -36.86,-42 -56.42,-62.7 -11.91,-12.3 -24.72,-24.1 -37.09,-36.4 -18.08,-18 -35.71,-36 -54.23,-53.6 -13.3,-12.7 -27.47,-24.5 -41.67,-36.7 -18.03,-16.6 -36.05,-33.3 -55.41,-49 -14.67,-12.6 -29.74,-23.9 -44.85,-36.1 -18.88,-15.2 -37.77,-30.5 -57.55,-45.2 -15.54,-11.7 -31.98,-22.9 -47.96,-34.2 -19.76,-14.3 -39.07,-28.6 -59.72,-42.4 -16.42,-10.7 -33.3,-21.5 -50.18,-32.2 -21.07,-12.9 -41.73,-26.7 -62.78,-39.1 -17.33,-10.7 -35.07,-20.1 -52.84,-30.3 -18.7,-10.7 -37.41,-21.4 -56.54,-31.6 -263.47,27 -521.84,89.9 -767.88,186.9 -23.83,9.7 -46.75,19.3 -71.01,29.4 -22.48,9.1 -44.91,19.6 -68.27,29.7 -2162.86,961.8 -3169.186,3517.58 -2243.27,5697.42 178.03,419.16 417.75,804.34 712.37,1145.78 42.66,49.9 86.15,98 129.09,143.3 6.12,4.8 12.24,9.1 17.91,13.9 6.13,4.8 12.28,10 18.41,14.8 6.59,4.8 13.61,9.1 20.66,13.8 6.11,4.3 11.76,8.7 18.31,12.5 7.05,4.8 14.53,9 22.01,13.3 6.07,3.4 12.17,7.3 18.24,10.7 7.49,4.3 15.86,8 23.78,11.8 6.06,3 11.68,6.4 17.73,9.4 8.38,3.8 16.73,7.1 25.09,10.4 6.04,2.5 12.1,5.5 18.12,7.5 8.36,3.3 17.15,6.2 25.49,9 6.48,2.1 12.52,4.6 18.52,6.2 9.25,2.8 18.94,5.1 28.17,7.5 5.55,1.6 11.57,3.7 17.1,4.8 15.22,3.5 30.42,6.6 46.05,9.1 46.46,7.8 93.62,10.5 140.15,8.6 72.08,-2.9 142.34,-16.7 208.54,-40.8 145.03,-52.4 270.77,-152.9 354.45,-288.3 45.95,-73.5 77.45,-154.29 92.82,-238.52 9.4,-50.63 13.27,-102.41 11.17,-154.87 -2.27,-57.02 -11.87,-114.2 -28.27,-170.2 -3.17,-10.84 -6.35,-21.68 -10.45,-32.94 -12.34,-34.23 -26.4,-66.11 -41.73,-95.19 -11.35,-21.02 -21.25,-40.27 -30.17,-57.73 l -9.42,-18.36 c -30.25,-59.56 -64.44,-126.27 -99.34,-199.35 -140.5,-291.82 -299.71,-686.15 -307.95,-1109.82 -0.42,-33.33 0.07,-66.7 1.46,-100.57 l -0.05,-1.37 1.11,-29.28 c 2.07,-62.68 5.34,-140.94 30.03,-231.93 35.48,-129.81 92.61,-220.72 120.57,-264.33 112.19,-176.73 292.26,-438.41 487.96,-708.94 -223.25,-156 -493.61,-416.2 -630.22,-816.4 -49.2,-145.2 -77.69,-298 -83.9,-453.5 l 136.84,-5.5 c 5.69,142.3 31.37,282 76.87,414.5 136.13,399.8 420.2,648.5 634.49,786.1 l 60.96,39.1 -42.42,58.8 c -210.07,288.51 -406.16,572.3 -524.81,758.89 -25.79,40.78 -73.91,117.17 -104.24,227.12 -5.18,18.94 -9.01,37.37 -12.41,55.32 -9.29,53.37 -11.46,101.89 -12.89,146.26 l -0.62,18.76 c 0.89,10.93 2.68,21.37 4.47,31.81 1.24,8.17 2.48,16.35 3.7,24.06 2.28,11.33 5.93,22.61 8.67,33.92 2.11,7.23 3.34,14.95 5.91,22.15 3.68,12.19 8.26,23.89 12.86,36.04 2.52,5.84 4.14,12.17 6.66,18.01 7.57,17.98 15.58,35.47 24.94,52.46 142.18,265.26 452.05,382.18 731.72,280.54 l 4.01,-13.86 36.04,-1.44 c 13.47,-6.02 26.91,-12.5 39.89,-19.41 62.62,-33.57 117.54,-76.89 161.26,-126.15 l 3.05,-3.78 c 12.21,-14.65 23.96,-29.28 35.31,-42.53 172.73,-205.19 367.39,-353.23 573.59,-509.95 46.98,-36.15 94.43,-72.31 141.83,-109.38 l 8.43,-6.28 c 24,-16.95 47.46,-35.7 70.4,-56.27 l 7.5,-6.69 c 45.58,-37 87.11,-72.47 125.92,-107.38 9.71,-8.61 18.98,-16.74 27.78,-25.32 26.45,-23.9 51.54,-47.75 75.7,-72.01 10.11,-10 20.24,-19.54 29.89,-29.52 177.79,-181.64 319.59,-383.31 432.73,-616.27 182.82,-376 283.29,-811.8 290.19,-1256.6 l -0.26,-6.4 c 0.76,-27 1.03,-54.4 0.85,-81.8 0.06,-10.1 -0.35,-20.1 -0.75,-30.1" style="fill:#a3d842;fill-opacity:1;fill-rule:nonzero;stroke:none" transform="matrix(0.13333333,0,0,-0.13333333,0,2231.5067)"/>
        <path id="path7" d="m 4261.36,10952.3 c -678.7,986.3 -682.99,2265 -29.64,3248.6 -0.21,-11.6 0.48,-22.6 0.64,-34.4 0.1,-15.1 0.84,-30 0.94,-45.1 0.84,-30 2.31,-59.9 4.42,-89.7 0.77,-13.3 1.65,-27.3 2.68,-40.2 3.4,-42.4 7.32,-84 12.88,-125.6 -0.14,-1 0.35,-1.9 0.2,-2.9 5.45,-41 12.17,-81.8 19.53,-122.5 2.41,-13.3 5.08,-26.3 7.76,-39.3 5.81,-28.4 11.61,-56.9 18.31,-84.9 3.28,-14.5 6.82,-28.6 10.36,-42.7 7.08,-28.3 15.05,-56 23.4,-84 3.57,-12.5 7.14,-25 10.71,-37.5 12.43,-39.7 25.77,-79 40,-117.7 12.18,-32.9 25.37,-66 39.2,-98.9 207.13,-490.4 588.06,-936.8 1081.35,-1264.5 9.76,-6.8 19.51,-13.6 29.15,-19.7 24.15,-15.6 48.19,-30.6 69.11,-42.9 l 4.5,-3.2 c 399.33,-245.3 840.2,-401.1 1275.68,-450.9 67.99,-7.7 135.52,-12.9 202.21,-15.2 57.46,-2.1 114.83,-1.9 172.23,0 54.11,1.9 107.87,5.7 161.67,11.2 82.47,8.3 164.51,20.9 246.76,37.7 4.44,0.8 8.52,1.9 12.96,2.7 111.24,23.4 222.49,54 349.02,96.2 2.54,0.5 4.71,1.2 5.6,1.7 33.74,9.4 66.86,20.3 98,33.2 l 2.17,0.7 c 58.89,20.8 116.65,42.4 174.16,63.6 235.88,87 458.51,169.3 710.26,203 16.63,2.3 33.64,4.4 51.02,6.3 l 8,1.1 c 83.83,13.5 165.02,41.6 242.18,84.8 9.73,6 19.84,11.8 29.58,17.8 11.83,-3.7 23.67,-7.5 35.88,-11.5 12.21,-4.1 24.42,-8.1 36.63,-12.1 17.23,-6.4 34.83,-13.1 52.44,-19.7 11.32,-4.5 22.52,-8.4 33.57,-13.3 19.11,-7.7 37.69,-16.1 56.54,-24.2 9.29,-4.2 18.59,-8.5 27.88,-12.7 27.62,-13 54.98,-26.5 81.82,-40.6 l 5.72,-33.4 44.06,6.6 c 3.64,-1.9 7.65,-4.2 12.04,-6.7 61.15,-35.2 124.34,-76.2 182.2,-118.6 19.62,-14.1 37.97,-28.5 55.94,-42.7 253.52,-200.8 419.72,-448.9 465.32,-521 l 10.8,-18.1 c 60.8,-96.6 139.3,-178.8 232.7,-243.6 19.9,-13.8 40.2,-26.2 60.7,-38.3 4.8,-2.7 9.5,-5.5 14.2,-7.6 20.4,-11.4 41.4,-22 62.7,-31.3 2.9,-1.4 6,-2.5 8.9,-3.9 11.1,-4.9 22.4,-9.4 33.7,-13.9 -152.4,-133.2 -367.8,-182.7 -564.7,-122.9 -59.6,18.1 -116.1,45.6 -167.1,81 -22.9,15.9 -44,32.7 -60.2,47.8 l -9.8,9.1 c -1.7,1.7 -4.1,4.5 -7.6,7.5 -33.8,30.6 -338.3,301.3 -730.39,437.7 -12.96,4.5 -26.55,9 -39.14,13.2 l -14.51,9.6 -11.81,-1.9 c -672.68,200.5 -1389.57,-87.3 -1585.99,-176.6 -11.61,-4.8 -20.68,-9 -28.22,-12.7 l 29.25,-61.9 29.25,-62 c 85.21,40.4 851.33,387.9 1530.67,177.8 l 15.24,-4.4 0.37,-0.3 c 10.08,-3.1 20.27,-6.8 30.34,-9.9 365.91,-127.7 651.24,-381.2 681.39,-408.2 l 15.66,-15.9 c 23.17,-21 49.29,-41.9 77.39,-61.4 17.3,-12 35,-23.2 52.9,-33.4 6.2,-3.2 12.3,-6.3 18.5,-9.5 12.4,-6.9 24.7,-13.2 37.2,-19.2 2.9,-1.4 5.8,-2.9 8.3,-4 -126.8,-146 -328.22,-212.9 -516.08,-168.2 l -10.34,2.7 c -12.84,3.9 -23.55,6.9 -34.9,9.8 l -6.92,2 c -500.54,133.9 -947.85,-59.2 -1215.03,-174.5 -26.17,-11.3 -50.17,-21.9 -72.76,-31.2 -1272.62,-530.72 -3319.46,-323.28 -4051.71,739.7" style="fill:#f57524;fill-opacity:1;fill-rule:nonzero;stroke:none" transform="matrix(0.13333333,0,0,-0.13333333,0,2231.5067)"/>
        <path id="path8" d="m 10759.9,11000 c -74.6,51.8 -137.9,116.8 -187.8,193 l -10.2,16.6 c -2.3,3.8 -5.1,8.5 -7.9,13.3 -47.9,76 -225,340.5 -495.7,554.9 -78.05,61.4 -166.35,121.5 -256.82,173.7 -2.14,0.9 -4.01,2.2 -6.15,3.2 l -6.69,35.2 -43.84,-8 c -26.95,14.8 -54.69,28.5 -82.68,41.8 -7.54,3.6 -15.7,7 -23.24,10.6 -23.61,10.8 -46.84,21.4 -70.97,31.4 -5.28,2 -10.94,4.3 -15.96,6.7 -24.76,9.9 -49.79,19.5 -75.07,28.7 3.09,2.9 5.81,6 8.52,9.1 4.77,4.5 9.43,9.6 13.82,14.3 9.83,11 19.39,21.5 28.47,33 4.01,5 8.41,9.8 11.79,14.6 12.57,15.8 24.14,31.6 34.95,48 1.82,2.6 3.53,5.9 5.24,9.2 8.99,13.7 16.97,27.6 25.21,41.9 3.15,6.2 6.57,12.7 9.98,19.2 5.78,11.6 11.19,23.4 16.49,35.8 3.15,6.1 5.93,12.6 8.33,19.2 6.63,16 12.62,31.8 17.6,47.8 1.48,4.6 2.95,9.1 4.43,13.6 5.24,16.4 9.47,32.9 13.44,49 1.39,6.8 3.04,14 4.44,20.8 2.26,12.9 4.52,25.8 6.41,38.9 1.02,7.1 2.41,13.9 3.05,21.2 2.07,15.8 3.12,31.8 4.06,48.3 0.06,3.3 0.38,7 0.7,10.7 0.48,19.1 0.58,38.5 -0.32,58 -0.52,6.4 -1.03,12.9 -1.43,18.7 -1.26,14.3 -2.51,28.5 -4.03,42.3 -0.89,6.7 -1.78,13.5 -2.93,19.8 -2.61,16.3 -5.6,32.8 -9.11,48.5 -0.69,3.9 -1.38,7.7 -2.33,11.1 -4.11,17.3 -8.86,34.5 -14.24,51.6 19.79,-18.8 39.32,-37.9 58.47,-56.7 5.22,-5.3 9.81,-10.7 15.03,-16 15.66,-15.9 30.69,-31.8 45.46,-48.2 6.09,-6.4 11.8,-12.6 17.51,-18.8 16.12,-18.4 32.51,-36.4 48,-55 2.48,-2.8 5.07,-6.3 7.93,-9.4 18.34,-21.6 36.05,-43.3 53.12,-65.1 4.59,-5.4 8.91,-11.2 13.24,-17 12.86,-16.7 25.73,-33.4 38.21,-49.8 4.82,-6.7 9.52,-12.8 13.96,-19.2 14.71,-19.6 28.67,-38.7 42.35,-58.2 1.7,-2.4 3.1,-4.4 4.5,-6.5 15.4,-21.8 29.8,-43.4 44.5,-64.7 3.7,-5.9 7.2,-11.2 11.2,-16.7 10.8,-16.4 21.3,-32.6 31.8,-48.7 3.3,-5.6 7.2,-11.2 10.9,-17.1 12.5,-19.7 24.9,-39.4 37.2,-58.5 0.1,-0.7 0.5,-0.9 0.6,-1.5 12.9,-20.7 25.1,-40.8 36.8,-60 3.2,-5 6,-9.7 8.9,-15.1 8.9,-14.5 17.8,-29.6 26.3,-43.8 2.8,-4.7 6,-9.7 8.9,-14.5 9.9,-16.9 19.9,-33.8 28.9,-49.5 l 10.8,-18.1 c 9.5,-16 20.1,-34.4 31.2,-54.4 19.4,-34.5 42.7,-69 68.7,-102 8.6,-11.6 18.2,-22.7 28.1,-34 45.5,-52.1 96.8,-98.3 153.1,-137.3 137.7,-95.5 298.4,-146.4 464.7,-147.9 276.5,-3.4 535.8,130.1 693.5,357.4 31.7,45.8 59.2,95 81.3,146.9 2.1,4.7 3.9,9.6 6.2,14.6 19.3,-124.5 32.8,-249.9 41.3,-374.7 3.9,-63.3 6.4,-115.6 7.8,-164.9 -8.5,-123.6 -50.8,-243.1 -122.4,-346.3 -132.7,-191.3 -351.3,-303 -584.6,-299 -45.3,0.4 -92.3,6.3 -139.9,17.1 -86.8,19 -168.8,55.4 -243.1,106.9" style="fill:#f57524;fill-opacity:1;fill-rule:nonzero;stroke:none" transform="matrix(0.13333333,0,0,-0.13333333,0,2231.5067)"/>
        <path id="path9" d="m 5582.16,12083.5 -1.12,0.8 c -162.14,107.4 -311.63,228.4 -445.34,360 -282.77,275.6 -497.44,597.3 -623.63,937.6 -14.71,39.7 -28.28,80.2 -40.83,120.6 -4.18,14 -7.34,27.8 -11.51,41.8 -7.86,27.2 -15.6,53.6 -22.57,81.2 -4,16.7 -7.1,33.9 -10.84,50.9 -5.49,24.9 -11.24,49.5 -16.1,74.5 -3.59,18.1 -5.91,36.3 -8.61,54.9 -4.37,24.1 -8.74,48.3 -11.57,73 -2.81,19.2 -4.24,37.9 -6.42,57.2 -2.72,24.1 -5.44,48.3 -7.27,72.9 -1.54,19.4 -2.19,39.3 -3.09,58.8 -1.45,24.3 -3.16,48.3 -3.72,73.1 -0.27,19.7 -0.28,39.7 -0.29,59.7 0.45,24.7 -0.1,49.5 0.73,73.9 0.25,20.4 1.88,40.4 2.77,60.9 1.03,21.5 2.06,43 3.72,64.6 164.16,207.8 355.87,392.1 569.84,547.6 20.92,14.9 41.31,29.1 62.87,44.2 19.76,14.1 40.65,27.3 61.68,41.7 1972.34,1308.7 4668.97,786.1 6011.34,-1165 258.1,-375.2 454.5,-784.2 584.4,-1216 19.2,-62.8 36.5,-125.3 51.7,-185.9 0.7,-7.7 1.1,-15.2 2.1,-22.5 0.7,-7.8 1.9,-15.8 2.6,-23.5 0.5,-8.1 0.3,-16.4 0.6,-24.9 0.3,-7.4 1,-14.5 0.7,-22.1 0.2,-8.5 -0.2,-17.1 -0.6,-25.7 -0.4,-7 -0.4,-14.2 -0.8,-21.2 -0.4,-8.6 -1.7,-17.7 -2.7,-26.4 -0.8,-6.7 -0.9,-13.3 -1.7,-20 -1.3,-9.1 -3,-17.9 -4.7,-26.7 -1.1,-6.5 -1.8,-13.2 -3.4,-19.3 -1.6,-8.9 -3.9,-17.8 -6,-26.4 -1.8,-6.5 -2.9,-13 -4.8,-18.9 -2.6,-9.3 -5.8,-18.8 -8.7,-27.8 -1.7,-5.6 -3.2,-11.7 -5.2,-17 -5.2,-14.7 -10.8,-29.2 -17,-43.8 -18.4,-43.3 -41.4,-84.6 -68,-122.8 -41.1,-59.3 -90.4,-111.2 -146.3,-154.1 -122,-94.3 -274.3,-146.4 -433.5,-144.4 -86.7,0.7 -171.8,17.5 -251.1,49.7 -47.7,19.3 -93.5,43.8 -136.6,73.7 -46.9,32.6 -90,71.3 -128.5,115.2 -7.4,8.5 -14.9,17 -22.2,26.5 -22.2,28.8 -41.6,57.8 -57.9,86.3 -11.6,20.9 -22.6,39.6 -32.5,56.5 l -10.4,17.8 c -34.1,57.5 -72,122.1 -114.9,190.8 -170.9,275.2 -418.14,621.1 -771.2,855.5 -27.9,18.2 -56.33,35.7 -85.65,52.7 l -1.12,0.8 -25.31,14.8 c -53.99,31.9 -121.78,71.1 -211.81,99.1 -128.57,39.7 -235.95,40.3 -287.74,40.1 -209.34,0.2 -526.78,-11.3 -860.08,-31.2 -11.82,272.1 -86.22,639.8 -350.63,969.9 -96.07,119.4 -209.74,225.5 -337.65,314.2 l -78.06,-112.5 c 117.04,-81.2 221.13,-177.8 308.51,-287.3 264.3,-329.5 321.63,-702.6 322.76,-957.3 l 0.31,-72.4 72.39,4.2 c 356.14,22.4 700.84,35.6 921.95,35.5 48.25,-0.1 138.53,-0.5 247.59,-33.9 18.76,-5.8 36.36,-12.4 53.33,-19.2 50.02,-20.8 92.13,-45 130.33,-67.6 l 16.17,-9.6 c 8.74,-6.6 16.58,-13.7 24.43,-20.8 6.24,-5.5 12.47,-10.9 18.32,-16.1 8.34,-8 15.9,-17.1 23.97,-25.5 4.97,-5.6 10.82,-10.8 15.52,-16.9 8.31,-9.6 15.72,-19.7 23.51,-30.1 3.57,-5.3 8.04,-10.1 11.62,-15.3 11.1,-16.1 21.57,-32.2 30.88,-49.2 147.51,-262.4 79.86,-586.6 -156,-768 l -13.85,4 -20.56,-29.6 c -12.3,-8.1 -24.99,-16 -37.78,-23.2 -61.94,-34.8 -127.97,-57.9 -193,-68.4 l -4.82,-0.5 c -18.91,-2.5 -37.57,-4.5 -54.83,-7 -265.84,-35.6 -495.23,-120.4 -738.13,-210.3 -55.72,-20.2 -111.69,-40.9 -168.42,-61 l -9.82,-3.7 c -27.18,-11.2 -55.6,-20.9 -85.26,-29.2 l -9.67,-2.7 c -55.68,-18.7 -107.9,-34.7 -158.18,-48.7 -12.48,-3.5 -24.32,-7 -36.28,-9.8 -34.36,-9.5 -67.95,-17.9 -101.39,-25.2 -13.87,-3.2 -27.35,-6.6 -40.95,-9.4 -248.68,-52.6 -494.94,-64 -752.24,-34.4 -415.38,47.5 -837,196.7 -1216.04,429.6 l -5.25,3.6 c -23.18,13.9 -46.46,28.3 -69.49,43.2 -8.51,5.4 -16.76,11.1 -25.02,16.8" style="fill:#f8a43c;fill-opacity:1;fill-rule:nonzero;stroke:none" transform="matrix(0.13333333,0,0,-0.13333333,0,2231.5067)"/>
        <path id="path10" d="m 11231.2,10502 c 1190.4,128.6 2317.5,-475 2872.7,-1517.14 -10,5.66 -20.1,10.29 -30.5,15.75 -13.3,7.07 -26.8,13.52 -40.2,20.59 -26.8,13.53 -53.8,26.44 -81,38.74 -12.1,5.65 -24.8,11.5 -36.7,16.74 -38.9,17.13 -77.3,33.45 -116.6,48.33 -0.8,0.61 -1.9,0.61 -2.7,1.21 -38.6,14.69 -77.7,28.14 -117,40.98 -12.9,4.22 -25.6,8.03 -38.2,11.83 -27.9,8.42 -55.7,16.83 -83.5,24.23 -14.3,4 -28.4,7.6 -42.5,11.19 -28.2,7.19 -56.4,13.36 -85.1,19.32 -12.6,2.79 -25.3,5.57 -38,8.36 -40.9,7.93 -81.7,14.85 -122.6,20.74 -34.7,4.9 -70.1,8.99 -105.6,12.46 -529.9,50.67 -1103.7,-72.45 -1626.5,-350.85 -10.5,-5.37 -21.1,-10.74 -31.1,-16.31 -25.2,-13.82 -49.9,-27.84 -70.6,-40.42 l -4.9,-2.48 c -405.6,-234.86 -752.1,-548.8 -1002.8,-908.34 -39.1,-56.17 -75.7,-113.13 -109.5,-170.7 -29.1,-49.57 -56.2,-100.15 -81.8,-151.55 -24,-48.52 -46.2,-97.65 -66.9,-147.59 -31.9,-76.54 -59.8,-154.69 -84,-235.06 -1.4,-4.3 -2.4,-8.39 -3.8,-12.68 -32.3,-109.01 -58.2,-221.45 -81.1,-352.86 -0.83,-2.45 -1.23,-4.7 -1.22,-5.72 -7.77,-34.14 -13.9,-68.48 -17.39,-101.98 l -0.39,-2.25 c -9.66,-61.74 -18.09,-122.84 -26.72,-183.54 -35.54,-248.8 -68.91,-483.8 -158.81,-721.4 -5.83,-15.7 -12.07,-31.7 -18.72,-47.8 l -2.81,-7.6 c -27.92,-80.2 -41.73,-165 -40.41,-253.4 0.68,-11.4 0.95,-23.1 1.62,-34.5 -8.93,-8.6 -17.86,-17.3 -27.2,-26.1 -9.35,-8.8 -18.68,-17.7 -28.03,-26.5 -13.81,-12.1 -28.03,-24.4 -42.25,-36.8 -9.35,-7.8 -18.08,-15.8 -27.64,-23.2 -15.85,-13.2 -32.11,-25.5 -48.17,-38.3 -8.13,-6.1 -16.26,-12.3 -24.39,-18.5 -24.6,-18.1 -49.41,-35.8 -74.63,-52.7 l -32.12,10.9 -15.07,-42 c -3.46,-2.2 -7.32,-4.7 -11.6,-7.4 -60.01,-37.1 -126.16,-73.2 -190.91,-104 -21.79,-10.5 -43.17,-19.8 -64.15,-28.9 -297.15,-127.7 -594.46,-156.1 -679.56,-161.9 l -21.03,-1 c -113.88,-7.5 -223.55,-37.6 -324.93,-89 -21.58,-10.9 -42.13,-22.9 -62.48,-35.3 -4.68,-2.8 -9.36,-5.7 -13.43,-8.8 -19.73,-12.6 -39.05,-26 -57.34,-40.4 -2.64,-1.8 -5.08,-4.1 -7.72,-5.9 -9.56,-7.4 -18.9,-15.2 -28.25,-23.1 -44.82,197.4 13.99,410.5 160.16,555.3 44.26,43.9 95.3,80.6 150.67,108.6 24.84,12.6 49.69,23.2 70.68,30.2 l 12.63,4.4 c 2.24,0.6 5.91,1.5 10.19,3.1 42.99,15.2 425.83,154.6 732.11,434.8 10.16,9.2 20.51,19.1 30.26,28.1 l 15.27,8.3 4.02,11.2 c 495.94,496.8 583.23,1264.31 597.93,1479.58 1.36,12.46 1.91,22.47 2.28,30.84 l -68.42,3.7 -68.42,3.69 c -4.97,-94.15 -63.07,-933.41 -570.64,-1431.41 l -11.17,-11.3 -0.41,-0.2 c -7.51,-7.4 -15.64,-14.6 -23.15,-22 -286.18,-261.3 -644.77,-392 -682.87,-405.7 l -21.4,-6.2 c -29.54,-10.4 -60.3,-23.4 -90.84,-38.9 -18.73,-9.5 -37.04,-19.8 -54.54,-30.8 -5.69,-3.9 -11.39,-7.8 -17.08,-11.7 -12,-7.6 -23.39,-15.4 -34.57,-23.7 -2.65,-1.8 -5.29,-3.7 -7.53,-5.3 -68.2,180.9 -31.42,390 97.2,534 l 7.31,7.8 c 9.54,9.5 17.25,17.5 25.16,26.1 l 5.08,5.1 c 355.55,376.9 398.11,862.26 423.61,1152.12 2.49,28.39 4.59,54.54 7.1,78.85 137.54,1371.97 1292.39,3074.63 2575.63,3214.03" style="fill:#774da3;fill-opacity:1;fill-rule:nonzero;stroke:none" transform="matrix(0.13333333,0,0,-0.13333333,0,2231.5067)"/>
        <path id="path11" d="m 8186.11,4760.8 c 81.03,41.1 168.27,65.8 259.08,73.5 l 19.39,1.1 c 4.49,0.3 10,0.5 15.51,0.7 89.6,6.1 406.5,36.3 723.81,172.6 91.04,39.5 185.9,88.7 274.81,143.5 1.83,1.4 3.87,2.4 5.69,3.9 l 34.16,-10.8 13.85,42.3 c 25.83,16.7 51.05,34.6 76.06,52.9 6.7,4.9 13.61,10.5 20.32,15.4 20.74,15.7 41.07,31.1 61.39,47.5 4.27,3.7 8.94,7.7 13.41,10.9 20.53,17.1 40.84,34.6 60.95,52.5 1.05,-4.1 2.5,-8 3.95,-11.9 1.67,-6.3 3.95,-12.8 6.03,-18.9 4.98,-13.9 9.75,-27.3 15.54,-40.8 2.49,-5.9 4.57,-12 7.25,-17.3 7.86,-18.5 16.34,-36.2 25.62,-53.5 1.45,-2.9 3.51,-5.9 5.57,-9 7.84,-14.4 16.29,-28.1 24.94,-42.1 3.91,-5.7 8.03,-11.8 12.15,-17.9 7.41,-10.6 15.22,-20.9 23.66,-31.5 3.91,-5.7 8.23,-11.2 12.95,-16.5 10.9,-13.4 22,-26.2 33.71,-38.2 3.28,-3.4 6.57,-6.9 9.85,-10.3 11.92,-12.4 24.44,-24 36.75,-35.1 5.33,-4.5 10.87,-9.4 16.21,-13.8 10.28,-8.1 20.48,-16.2 31.18,-24.1 5.7,-4.3 11.1,-8.8 17.2,-12.8 12.9,-9.3 26.5,-17.8 40.6,-26.5 2.9,-1.6 5.9,-3.7 9,-5.7 16.6,-9.5 33.6,-18.8 51.2,-27.3 5.9,-2.6 11.9,-5.2 17.2,-7.6 13.1,-5.7 26.2,-11.3 39.1,-16.5 6.3,-2.4 12.7,-4.9 18.8,-6.9 15.6,-5.4 31.5,-10.6 47.1,-15 3.6,-1.2 7.3,-2.4 10.8,-3.2 17.2,-4.6 34.5,-8.6 52.1,-12 -25.9,-8.5 -51.9,-16.6 -77.6,-24.5 -7.2,-2.1 -14.1,-3.6 -21.2,-5.6 -21.4,-6.3 -42.6,-11.9 -64,-17.1 -8.6,-2.3 -16.8,-4.4 -24.9,-6.5 -23.9,-5.5 -47.5,-11.3 -71.2,-16.1 -3.6,-0.9 -7.9,-1.5 -12,-2.6 -27.7,-5.8 -55.3,-11.1 -82.6,-15.7 -6.93,-1.5 -14.07,-2.6 -21.21,-3.6 -20.81,-3.4 -41.61,-6.8 -62.01,-10 -8.16,-1.1 -15.71,-2.3 -23.46,-3.2 -24.28,-3.6 -47.74,-6.8 -71.41,-9.6 -2.85,-0.4 -5.3,-0.6 -7.75,-0.8 -26.52,-3.2 -52.44,-5.6 -78.15,-8.4 -6.94,-0.5 -13.26,-1.1 -20,-2 -19.59,-1.7 -38.77,-3.3 -57.95,-4.8 -6.53,-0.3 -13.27,-1.1 -20.21,-1.6 -23.26,-1.5 -46.53,-3.1 -69.18,-4.8 -0.62,0.2 -1.02,-0.1 -1.64,0.1 -24.28,-1.5 -47.75,-2.7 -70.21,-3.8 -5.92,-0.5 -11.43,-0.7 -17.55,-0.7 -16.94,-1 -34.5,-1.7 -51.03,-2.4 -5.51,-0.2 -11.43,-0.6 -16.94,-0.9 -19.59,-0.7 -39.19,-1.4 -57.36,-1.9 l -21.02,-1 c -18.58,-0.7 -39.81,-1.2 -62.67,-1.6 -39.61,-0.6 -81.03,-4.7 -122.44,-11.9 -14.28,-2.1 -28.55,-5.3 -43.23,-8.6 -67.49,-15.3 -132.49,-38.5 -193.56,-69.5 -149.43,-75.8 -270.65,-193.1 -350.87,-338.7 -134.39,-241.7 -140.08,-533.3 -14.95,-780 25.19,-49.7 55.48,-97.3 90.64,-141.4 3.09,-4 6.58,-7.9 9.87,-12.4 -118.65,42.2 -235.5,90 -349.32,141.8 -57.52,26.6 -104.81,49.2 -148.84,71.4 -104.7,66.2 -189.76,160.2 -246.55,272.2 -105.31,207.6 -99.77,453.1 14.63,656.5 21.82,39.7 49.37,78.2 81.42,115 58.01,67.3 128.95,122.2 209.56,163.1" style="fill:#774da3;fill-opacity:1;fill-rule:nonzero;stroke:none" transform="matrix(0.13333333,0,0,-0.13333333,0,2231.5067)"/>
        <path id="path12" d="m 11599.2,8802.33 1.2,0.62 c 171.6,91.63 349,165.73 528.4,220.86 376.8,117.91 761.8,154 1121.3,103.38 41.9,-5.89 84,-13.2 125.4,-21.33 14.4,-2.99 28.1,-6.79 42.4,-9.77 27.6,-5.97 54.5,-11.73 82.1,-18.72 16.6,-4.4 33.2,-9.82 49.9,-14.62 24.6,-7.01 48.9,-13.6 73.3,-21.22 17.6,-5.42 34.7,-12.05 52.3,-18.49 23.4,-7.62 46.7,-15.25 69.8,-24.51 18.2,-6.63 35.4,-14.29 53.4,-21.54 22.5,-9.06 45,-18.12 67.5,-28.2 17.9,-7.86 35.7,-16.74 53.3,-25.22 22.1,-10.28 44,-20.16 66.1,-31.47 17.4,-9.09 35,-18.58 52.6,-28.08 21.5,-12.12 43.6,-23.43 64.7,-35.77 17.9,-9.9 34.7,-20.83 52.3,-31.34 18.4,-11.13 36.9,-22.25 55.1,-33.99 104.9,-243.18 176,-499.41 211.2,-761.56 3.2,-25.5 6,-50.19 9,-76.31 3,-24.07 4.7,-48.77 7.3,-74.07 C 14652.6,5493.7 12911.7,3369 10557.1,3114.6 c -452.8,-48.9 -905.93,-27.4 -1347.65,63.4 -64.39,12.9 -127.56,27.4 -188.08,42.8 -7.16,3 -13.92,6.2 -20.87,8.9 -7.17,3 -14.74,5.8 -21.9,8.8 -7.37,3.5 -14.54,7.5 -22.12,11.3 -6.75,3.3 -13.3,6.1 -19.86,9.9 -7.57,3.9 -14.95,8.3 -22.32,12.8 -5.94,3.6 -12.29,7 -18.23,10.7 -7.38,4.4 -14.76,9.9 -21.94,15 -5.53,3.8 -11.27,7 -16.8,10.9 -7.38,5.5 -14.36,11.1 -21.33,16.8 -5.13,4.1 -10.66,7.9 -15.38,12.2 -6.98,5.6 -13.75,11.9 -20.32,17.8 -4.92,4.7 -10.05,8.7 -14.36,13.2 -6.98,6.7 -13.76,14 -20.33,20.9 -4.11,4.1 -8.83,8.3 -12.53,12.6 -10.48,11.6 -20.55,23.4 -30.42,35.8 -29.41,36.8 -54.75,76.6 -75.81,118.2 -32.63,64.3 -54.86,132.4 -66.08,201.9 -24.96,152.2 1.49,311 78.9,450 41.83,76 96.98,142.9 163.02,197.4 39.63,32.9 82.95,61.5 129.77,85.2 50.9,25.9 105.5,45.4 162.39,58.3 11.01,2.6 22.02,5.1 33.85,7 35.91,5.9 70.59,9.2 103.46,10 23.89,0.3 45.52,1 65.12,1.8 l 20.62,0.7 c 66.75,2.6 141.66,5.3 222.48,10.4 323.29,19.6 745.22,72.9 1119.12,272.3 29.3,15.8 58.2,32.5 87.1,50.3 l 1.2,0.6 25,15.2 c 53.8,32.4 120.5,73.4 187.9,139.3 96,94.3 147.6,188.5 172,234.2 99.6,184.1 240.3,468.9 381.1,771.7 245,-118.9 604,-228.1 1020,-152.3 150.8,27.9 298.1,77.5 436.9,147.9 l -61.9,122.2 c -127.1,-64.5 -261.5,-110.2 -399.4,-135 -415.5,-76.1 -771,50.7 -995.7,170.7 l -63.9,34.1 -30.6,-65.7 c -149.5,-324 -301.7,-633.6 -406.7,-828.2 -23.1,-42.4 -66.3,-121.6 -147.5,-201.7 -14,-13.8 -28.2,-26.1 -42.3,-37.8 -42,-34.1 -83.3,-59.7 -121.4,-82.6 l -16,-9.7 c -10,-4.5 -20,-8 -30,-11.6 -7.7,-2.9 -15.5,-5.8 -22.8,-8.5 -11,-3.5 -22.6,-5.8 -33.8,-8.9 -7.4,-1.7 -14.7,-4.4 -22.3,-5.7 -12.4,-2.7 -24.9,-4.4 -37.7,-6.3 -6.3,-0.7 -12.7,-2.3 -19,-3 -19.4,-2.1 -38.5,-3.7 -57.9,-3.8 -301,-5.2 -554.11,208.4 -601.73,502.1 l 10.15,10.3 -16.31,32.1 c -1.31,14.7 -2.21,29.6 -2.5,44.3 -1.22,71.1 9.82,140.1 31.52,202.3 l 1.81,4.5 c 6.84,17.8 13.88,35.2 19.91,51.6 94.95,250.8 129.25,493 165.55,749.4 8.7,58.7 17.1,117.7 26.4,177.17 l 1.4,10.42 c 3.1,29.21 8,58.85 14.8,88.9 l 2.2,9.81 c 10,57.84 20.8,111.39 32.3,162.29 2.8,12.68 5.4,24.74 8.6,36.6 8,34.75 16.5,68.28 25.9,101.21 3.8,13.7 7.2,27.19 11.2,40.49 72,243.78 178.9,465.91 327.1,678.27 239.2,342.94 570.7,643.12 955.7,866.02 l 5.7,2.89 c 23.2,13.81 47,27.42 71,40.63 8.8,4.95 17.7,9.49 26.7,14.03" style="fill:#9564b8;fill-opacity:1;fill-rule:nonzero;stroke:none" transform="matrix(0.13333333,0,0,-0.13333333,0,2231.5067)"/>
        <path id="path13" d="m 7673.08,9223.45 c -119.77,11.67 -261.22,-46.32 -341.52,-134.49 -285.95,-314.04 5.63,-806.01 416.42,-704.91 457.72,112.64 417.87,791.4 -74.9,839.4 z m 390.77,339.65 -16.76,-177.93 98.1,-77.28 166.77,56.43 123.05,-190.29 -121.1,-132.29 30.92,-127.46 c 29.03,-11.89 174.46,-64.46 174.46,-64.46 l -15.9,-213.72 -171.15,-33.81 -48.93,-119.36 c -4.73,-23.81 103.93,-150.57 103.93,-150.57 l -138.69,-171.69 -168.51,71.64 -103.63,-66.08 0.14,-179.37 -218.59,-58.88 -87.38,153.2 -132.08,10.51 -106.16,-144.94 -211.43,80.98 c -5.21,8.43 25.86,158.39 25.86,158.39 0,0 -81.68,79.68 -105.91,99.53 l -163.98,-51.87 -122.77,185.87 118.86,132.82 -33.2,127.09 -168.15,50.47 13.44,237.03 171.29,23.85 50.11,123.4 -104.42,149.98 142.81,170.74 161.93,-74.36 102.93,64.99 11.5,188.28 215.49,54.83 81.08,-151.67 130.17,-16.91 106.01,145 209.89,-82.09" style="fill:#43bb65;fill-opacity:1;fill-rule:nonzero;stroke:none" transform="matrix(0.13333333,0,0,-0.13333333,0,2231.5067)"/>
      </g>
    </g>
  </g>
</svg>